<svg width="200" height="120" viewBox="0 0 200 120" fill="none" xmlns="http://www.w3.org/2000/svg">
  <!-- Cercle incomplet (ouvert en haut) -->
  <path d="M 100 10 Q 160 30 180 70 Q 180 100 160 110 Q 100 105 40 110 Q 20 100 20 70 Q 40 30 100 10" 
        stroke="#1a5f3f" stroke-width="2.5" fill="none" stroke-linecap="round"/>
  
  <!-- Tronc de l'arbre -->
  <path d="M 95 55 L 105 55 L 105 75 L 95 75 Z" fill="#1a5f3f"/>
  <path d="M 90 60 L 110 60" stroke="#1a5f3f" stroke-width="2"/>
  
  <!-- Branches -->
  <path d="M 95 65 Q 85 70 80 75" stroke="#1a5f3f" stroke-width="2" fill="none" stroke-linecap="round"/>
  <path d="M 105 65 Q 115 70 120 75" stroke="#1a5f3f" stroke-width="2" fill="none" stroke-linecap="round"/>
  <path d="M 100 60 Q 95 50 90 45" stroke="#1a5f3f" stroke-width="2" fill="none" stroke-linecap="round"/>
  <path d="M 100 60 Q 105 50 110 45" stroke="#1a5f3f" stroke-width="2" fill="none" stroke-linecap="round"/>
  
  <!-- Feuilles vertes -->
  <circle cx="75" cy="70" r="4" fill="#1a5f3f"/>
  <circle cx="125" cy="70" r="4" fill="#1a5f3f"/>
  <circle cx="85" cy="48" r="3.5" fill="#1a5f3f"/>
  <circle cx="115" cy="48" r="3.5" fill="#1a5f3f"/>
  <circle cx="90" cy="42" r="3" fill="#1a5f3f"/>
  <circle cx="110" cy="42" r="3" fill="#1a5f3f"/>
  <circle cx="100" cy="38" r="3.5" fill="#1a5f3f"/>
  
  <!-- Feuilles orange-jaune -->
  <circle cx="70" cy="65" r="3.5" fill="#ffa500"/>
  <circle cx="130" cy="65" r="3.5" fill="#ffa500"/>
  <circle cx="88" cy="50" r="3" fill="#ffa500"/>
  <circle cx="112" cy="50" r="3" fill="#ffa500"/>
  <circle cx="95" cy="40" r="3" fill="#ffa500"/>
  <circle cx="105" cy="40" r="3" fill="#ffa500"/>
  
  <!-- Gouttes de miel -->
  <path d="M 85 75 Q 85 82 90 82 Q 85 82 85 88" fill="#ffa500" stroke="#ffa500" stroke-width="1"/>
  <path d="M 115 75 Q 115 82 120 82 Q 115 82 115 88" fill="#ffa500" stroke="#ffa500" stroke-width="1"/>
  <path d="M 100 75 Q 100 79 102 79 Q 100 79 100 83" fill="#ffa500" stroke="#ffa500" stroke-width="0.8"/>
  <path d="M 92 78 Q 92 81 93.5 81 Q 92 81 92 84" fill="#ffa500" stroke="#ffa500" stroke-width="0.8"/>
  <path d="M 108 78 Q 108 81 106.5 81 Q 108 81 108 84" fill="#ffa500" stroke="#ffa500" stroke-width="0.8"/>
  
  <!-- Texte "Le Miel" en vert foncé -->
  <text x="100" y="105" font-family="Arial, sans-serif" font-size="18" font-weight="bold" fill="#1a5f3f" text-anchor="middle">Le Miel</text>
  
  <!-- Texte "Havre" en orange-jaune -->
  <text x="100" y="120" font-family="Arial, sans-serif" font-size="18" font-weight="bold" fill="#ffa500" text-anchor="middle">Havre</text>
</svg>





